<svg width="357" height="357" viewBox="0 0 357 357" fill="none" xmlns="http://www.w3.org/2000/svg">
<path d="M52.9139 270.807C62.6243 294.503 78.4573 299.435 89.5891 294.503C111.118 284.964 167.041 274.307 224.477 299.358C300.547 332.538 316.732 282.479 292.454 231.842C268.177 181.206 259.948 129.999 287.935 101.787C315.923 73.5753 279.298 29.4413 214.257 75.3817C172.225 105.07 141.378 98.4592 124.813 90.0665C109.202 82.1566 91.8398 73.8873 75.5733 80.344C55.8356 88.1789 48.0584 105.165 78.0883 143.113C120.643 196.888 31.1468 217.694 52.9139 270.807Z" fill="#DEFFEE"/>
<path d="M92.4531 155.377H243.577V271.6C243.577 271.837 243.483 272.064 243.315 272.231C243.148 272.398 242.921 272.492 242.684 272.492H93.3456C93.1089 272.492 92.8819 272.398 92.7145 272.231C92.5471 272.064 92.4531 271.837 92.4531 271.6V155.377Z" fill="#22C30D"/>
<path d="M205.665 109.832H135.395L92.4531 155.377H243.577L205.665 109.832Z" fill="#19AA06"/>
<path d="M106.766 91.614L135.394 109.832L92.4521 155.377L59.9199 130.653L106.766 91.614Z" fill="#22C30D"/>
<path d="M234.292 91.614L205.664 109.832L243.576 155.377L281.138 130.653L234.292 91.614Z" fill="#22C30D"/>
<path d="M153.856 92.5455C154.664 92.1625 155.293 91.482 155.611 90.6464C155.929 89.8107 155.911 88.8845 155.562 88.0614L142.684 57.6936C142.501 57.2634 142.234 56.8746 141.897 56.5505C141.561 56.2264 141.162 55.9737 140.725 55.8076C140.289 55.6415 139.823 55.5654 139.356 55.5839C138.889 55.6024 138.431 55.7152 138.009 55.9153L135.528 57.0918C135.105 57.292 134.728 57.5755 134.418 57.9252C134.108 58.275 133.873 58.6837 133.725 59.127C133.577 59.5702 133.52 60.0387 133.558 60.5044C133.596 60.9701 133.728 61.4233 133.946 61.8367L149.305 91.0279C149.721 91.8192 150.428 92.4189 151.276 92.7017C152.124 92.9845 153.049 92.9286 153.856 92.5455Z" fill="#19AA06"/>
<path d="M170.002 89.6015C170.587 89.5598 171.133 89.2938 171.526 88.8591C171.919 88.4244 172.13 87.8546 172.112 87.2686L171.476 65.6494C171.467 65.3432 171.396 65.0419 171.268 64.7638C171.14 64.4856 170.956 64.2363 170.729 64.0308C170.502 63.8253 170.235 63.6679 169.946 63.568C169.656 63.4681 169.349 63.4278 169.044 63.4496L167.247 63.5776C166.942 63.5993 166.644 63.6826 166.372 63.8224C166.099 63.9622 165.858 64.1557 165.662 64.3911C165.466 64.6266 165.32 64.8992 165.232 65.1926C165.144 65.4861 165.117 65.7942 165.151 66.0985L167.583 87.5899C167.649 88.1726 167.938 88.7072 168.388 89.0821C168.839 89.457 169.418 89.6431 170.002 89.6015V89.6015Z" fill="#19AA06"/>
<path d="M182.468 97.5934C184.077 98.5232 186.334 97.6699 187.586 95.6588L209.821 59.9494C211.15 57.8161 210.835 55.2161 209.129 54.2299L206.752 52.8554C205.046 51.869 202.635 52.8932 201.449 55.1086L181.592 92.1923C180.473 94.2809 180.86 96.6634 182.468 97.5934Z" fill="#19AA06"/>
</svg>
